:FULLY-SPECIFIED
:FORCE-ALL-JOINTS-BE-3DOF
:DEGREES
408
root 4.43943 16.2444 -11.3549 5.27119 -38.3642 -5.43641
lfemur -33.9093 1.55737 -7.45996
ltibia 43.4616 -0 0
lfoot -8.18625 17.2758 -0.0136188
ltoes -0.0832934 0 0
rfemur -30.1216 -18.6624 29.3114
rtibia 77.5014 -0 0
rfoot 2.45266 -1.51306 -0.0147723
rtoes 32.491 -0 0
lowerback 4.71611 4.86034 1.33934
upperback 1.79496 6.4996 -1.3489
thorax -0.515205 3.25492 -2.40706
lowerneck -6.88726 1.37752 7.62573
upperneck 4.23135 1.09758 1.76206
head 2.5834 0.708455 -0.711934
lclavicle -3.06128e-14 4.46792e-15 0
lhumerus -49.4238 -18.8505 100.211
lradius 56.1313 -0 0
lwrist 20.5399 0 0
lhand -16.6628 4.81757 0.0127041
lfingers 7.12502 0 0
lthumb 12.4818 37.6199 0.0116975
rclavicle -3.06128e-14 4.46792e-15 0
rhumerus -49.734 10.8283 -98.5395
rradius 66.1614 -0 0
rwrist 9.38608 0 0
rhand -20.6618 -19.7789 -0.00485745
rfingers 7.12502 0 0
rthumb 8.60558 -52.2909 -0.00437019
409
root 4.37862 16.2241 -11.2573 4.97102 -37.1142 -5.14664
lfemur -32.5356 1.20079 -7.1061
ltibia 41.6705 -0 0
lfoot -7.75054 16.8063 -0.0186414
ltoes -0.223201 0 0
rfemur -28.8867 -18.3358 28.2428
rtibia 75.8654 -0 0
rfoot 2.60392 -1.49815 -0.00763795
rtoes 31.5046 -0 0
lowerback 4.49576 4.70112 1.24483
upperback 1.70795 6.28496 -1.31518
thorax -0.491619 3.14707 -2.30914
lowerneck -6.59741 1.31783 7.33762
upperneck 4.1025 1.04397 1.73104
head 2.48819 0.677259 -0.673947
lclavicle -3.24019e-14 6.81547e-15 0
lhumerus -47.6878 -18.9161 98.0131
lradius 54.2836 -0 0
lwrist 19.7939 0 0
lhand -15.8719 4.69153 0.00857584
lfingers 7.12502 0 0
lthumb 12.1292 36.3108 0.00817186
rclavicle -3.24019e-14 6.81547e-15 0
rhumerus -48.0825 10.8821 -96.4297
rradius 64.1234 -0 0
rwrist 8.9639 0 0
rhand -19.8622 -18.9955 -0.00504902
rfingers 7.12502 0 0
rthumb 8.27038 -50.5252 -0.0049982
410
root 4.3178 16.2037 -11.1598 4.6639 -35.7236 -4.84941
lfemur -31.0704 0.840931 -6.72797
ltibia 39.7279 -0 0
lfoot -7.28654 16.2824 -0.0230665
ltoes -0.363257 0 0
rfemur -27.5328 -17.9585 27.0902
rtibia 73.9632 -0 0
rfoot 2.73257 -1.48595 0.000550117
rtoes 30.3989 -0 0
lowerback 4.26067 4.52847 1.14736
upperback 1.61546 6.05241 -1.27632
thorax -0.466286 3.03027 -2.2034
lowerneck -6.28896 1.25003 7.02475
upperneck 3.95931 0.981765 1.69935
head 2.38467 0.641349 -0.632202
lclavicle -3.41909e-14 9.16302e-15 0
lhumerus -45.779 -18.9667 95.4264
lradius 52.2408 -0 0
lwrist 18.989 0 0
lhand -15.0302 4.5541 0.00412879
lfingers 7.12502 0 0
lthumb 11.7454 34.8849 0.00430012
rclavicle -3.41909e-14 9.16302e-15 0
rhumerus -46.2607 10.9269 -93.9538
rradius 61.8306 -0 0
rwrist 8.51431 0 0
rhand -18.9957 -18.1583 -0.00488578
rfingers 7.12502 0 0
rthumb 7.91849 -48.5796 -0.0053101
411
root 4.25699 16.1833 -11.0623 4.36495 -34.2807 -4.56113
lfemur -29.5921 0.494147 -6.34642
ltibia 37.7489 -0 0
lfoot -6.82734 15.7384 -0.0264509
ltoes -0.501852 0 0
rfemur -26.152 -17.5539 25.914
rtibia 71.8929 -0 0
rfoot 2.84422 -1.47687 0.00945037
rtoes 29.2387 -0 0
lowerback 4.02576 4.35296 1.05201
upperback 1.52288 5.81618 -1.23564
thorax -0.441317 2.91164 -2.09685
lowerneck -5.97995 1.18069 6.7085
upperneck 3.81248 0.917909 1.66665
head 2.27987 0.604502 -0.590277
lclavicle -3.598e-14 1.15106e-14 0
lhumerus -43.8106 -18.986 92.553
lradius 50.1153 -0 0
lwrist 18.1716 0 0
lhand -14.1878 4.41255 -0.000344837
lfingers 7.12502 0 0
lthumb 11.3534 33.4248 0.000338921
rclavicle -3.598e-14 1.15106e-14 0
rhumerus -44.3766 10.9497 -91.2078
rradius 59.4121 -0 0
rwrist 8.065 0 0
rhand -18.1221 -17.3176 -0.00430823
rfingers 7.12502 0 0
rthumb 7.56315 -46.5661 -0.00520961
412
root 4.19617 16.1629 -10.9648 4.08669 -32.8729 -4.29556
lfemur -28.1764 0.173984 -5.9803
ltibia 35.8474 -0 0
lfoot -6.40271 15.2069 -0.0283033
ltoes -0.638203 0 0
rfemur -24.8315 -17.1476 24.7729
rtibia 69.7748 -0 0
rfoot 2.94522 -1.47149 0.0187588
rtoes 28.0881 -0 0
lowerback 3.80456 4.18449 0.963236
upperback 1.43506 5.58952 -1.19629
thorax -0.418623 2.79785 -1.99592
lowerneck -5.68684 1.1158 6.40856
upperneck 3.67201 0.85871 1.63285
head 2.18024 0.570151 -0.551389
lclavicle -3.7769e-14 1.38581e-14 0
lhumerus -41.8975 -18.9627 89.5418
lradius 48.0271 -0 0
lwrist 17.3858 0 0
lhand -13.3907 4.27388 -0.00455551
lfingers 7.12502 0 0
lthumb 10.9752 32.0122 -0.00344014
rclavicle -3.7769e-14 1.38581e-14 0
rhumerus -42.5416 10.9398 -88.3313
rradius 57.0127 -0 0
rwrist 7.64112 0 0
rhand -17.2972 -16.5201 -0.00326071
rfingers 7.12502 0 0
rthumb 7.21662 -44.6014 -0.00460632
413
root 4.13536 16.1426 -10.8672 3.83929 -31.5854 -4.06409
lfemur -26.8945 -0.108812 -5.64635
ltibia 34.1328 -0 0
lfoot -6.03914 14.7191 -0.0280809
ltoes -0.772418 0 0
rfemur -23.6519 -16.7667 23.7222
rtibia 67.7518 -0 0
rfoot 3.04261 -1.47067 0.0282193
rtoes 27.0089 -0 0
lowerback 3.60916 4.03224 0.884881
upperback 1.35631 5.38476 -1.16122
thorax -0.39993 2.69506 -1.90639
lowerneck -5.42453 1.06077 6.14291
upperneck 3.54721 0.809822 1.59809
head 2.0917 0.541385 -0.518402
lclavicle -3.95581e-14 1.62057e-14 0
lhumerus -40.1532 -18.8958 86.5943
lradius 46.0999 -0 0
lwrist 16.6722 0 0
lhand -12.68 4.14481 -0.00821758
lfingers 7.12502 0 0
lthumb 10.6317 30.7262 -0.00675661
rclavicle -3.95581e-14 1.62057e-14 0
rhumerus -40.8674 10.8918 -85.5119
rradius 54.7877 -0 0
rwrist 7.26534 0 0
rhand -16.5724 -15.8091 -0.00168957
rfingers 7.12502 0 0
rthumb 6.89012 -42.8037 -0.00341878
414
root 4.07454 16.1222 -10.7697 3.63105 -30.5001 -3.87632
lfemur -25.8128 -0.345905 -5.35941
ltibia 32.708 -0 0
lfoot -5.76044 14.3043 -0.0251915
ltoes -0.905538 0 0
rfemur -22.6876 -16.4394 22.8143
rtibia 65.9845 -0 0
rfoot 3.14407 -1.47554 0.0376269
rtoes 26.0602 -0 0
lowerback 3.45046 3.90476 0.820247
upperback 1.29046 5.21335 -1.13321
thorax -0.386815 2.609 -1.83357
lowerneck -5.20657 1.02054 5.92809
upperneck 3.44678 0.776372 1.56267
head 2.01968 0.521013 -0.49389
lclavicle -4.13472e-14 1.85532e-14 0
lhumerus -38.687 -18.7989 83.9586
lradius 44.4573 -0 0
lwrist 16.0689 0 0
lhand -12.093 4.03178 -0.0110498
lfingers 7.12502 0 0
lthumb 10.3429 29.6421 -0.0093281
rclavicle -4.13472e-14 1.85532e-14 0
rhumerus -39.4632 10.8083 -82.9812
rradius 52.8973 -0 0
rwrist 6.95818 0 0
rhand -15.9952 -15.2244 0.00045906
rfingers 7.12502 0 0
rthumb 6.59378 -41.2893 -0.00157545
415
root 4.01372 16.1018 -10.6722 3.46911 -29.6953 -3.74085
lfemur -24.9934 -0.530648 -5.13288
ltibia 31.6695 -0 0
lfoot -5.58888 13.9912 -0.0189993
ltoes -1.03955 0 0
rfemur -22.0079 -16.1944 22.0984
rtibia 64.6444 -0 0
rfoot 3.25804 -1.48755 0.046825
rtoes 25.2982 -0 0
lowerback 3.33859 3.81018 0.772291
upperback 1.24105 5.08617 -1.11497
thorax -0.380793 2.54511 -1.78241
lowerneck -5.04556 0.99976 5.77971
upperneck 3.37904 0.763214 1.52696
head 1.96931 0.511697 -0.480262
lclavicle -4.31362e-14 2.09008e-14 0
lhumerus -37.6031 -18.6998 81.912
lradius 43.2196 -0 0
lwrist 15.6115 0 0
lhand -11.664 3.94095 -0.0127755
lfingers 7.12502 0 0
lthumb 10.1279 28.8317 -0.0108762
rclavicle -4.31362e-14 2.09008e-14 0
rhumerus -38.4345 10.6997 -80.9983
rradius 51.5002 -0 0
rwrist 6.73872 0 0
rhand -15.6109 -14.8034 0.00324184
rfingers 7.12502 0 0
rthumb 6.33669 -40.1708 0.000986501
416
root 3.95291 16.0815 -10.5746 3.36019 -29.2471 -3.66622
lfemur -24.4963 -0.657011 -4.9794
ltibia 31.1106 -0 0
lfoot -5.54695 13.8074 -0.00883526
ltoes -1.17737 0 0
rfemur -21.6811 -16.0605 21.6215
rtibia 63.9035 -0 0
rfoot 3.39375 -1.5084 0.0556955
rtoes 24.7766 -0 0
lowerback 3.28357 3.75648 0.743875
upperback 1.21149 5.01391 -1.10917
thorax -0.383425 2.50874 -1.75782
lowerneck -4.95385 1.00318 5.71332
upperneck 3.35234 0.775324 1.49116
head 1.94569 0.516154 -0.479964
lclavicle -4.49253e-14 2.32483e-14 0
lhumerus -37.0026 -18.6342 80.7367
lradius 42.503 -0 0
lwrist 15.3347 0 0
lhand -11.4265 3.87829 -0.0131216
lfingers 7.12502 0 0
lthumb 10.0056 28.365 -0.0111306
rclavicle -4.49253e-14 2.32483e-14 0
rhumerus -37.8843 10.5817 -79.8272
rradius 50.7507 -0 0
rwrist 6.6258 0 0
rhand -15.4646 -14.5832 0.00672087
rfingers 7.12502 0 0
rthumb 6.12693 -39.5576 0.00432367
417
root 3.89209 16.0611 -10.4771 3.31154 -29.2325 -3.66206
lfemur -24.3824 -0.718176 -4.91188
ltibia 31.127 -0 0
lfoot -5.65961 13.7811 0.00598699
ltoes -1.32281 0 0
rfemur -21.7793 -16.0666 21.4304
rtibia 63.9251 -0 0
rfoot 3.56147 -1.54004 0.0641426
rtoes 24.5477 -0 0
lowerback 3.29615 3.7519 0.7381
upperback 1.20538 5.00761 -1.11869
thorax -0.396476 2.50539 -1.76506
lowerneck -4.94439 1.03604 5.74545
upperneck 3.37545 0.818311 1.45508
head 1.95423 0.537423 -0.495722
lclavicle -4.67144e-14 2.55959e-14 0
lhumerus -36.9869 -18.6335 80.6926
lradius 42.4219 -0 0
lwrist 15.2739 0 0
lhand -11.4159 3.84961 -0.0118182
lfingers 7.12502 0 0
lthumb 9.99531 28.3125 -0.00983155
rclavicle -4.67144e-14 2.55959e-14 0
rhumerus -37.9152 10.4683 -79.7108
rradius 50.799 -0 0
rwrist 6.63948 0 0
rhand -15.6045 -14.6027 0.0109662
rfingers 7.12502 0 0
rthumb 5.97172 -39.5586 0.00848766
